<svg width="16" height="16" viewBox="0 0 16 16" fill="none" xmlns="http://www.w3.org/2000/svg">
<circle cx="8" cy="8" r="8" fill="#F7FAFB"/>
<path d="M6.29028 12C5.31209 12 4.5181 11.6554 3.90832 10.9661C3.30277 10.2721 3 9.34997 3 8.19964V7.98574C3 7.21569 3.13127 6.52882 3.39382 5.92513C3.6606 5.3167 4.03324 4.84373 4.51175 4.50624C4.99026 4.16875 5.52382 4 6.11243 4C7.04827 4 7.77027 4.33512 8.27842 5.00535C8.79081 5.67558 9.047 6.62389 9.047 7.85027V8.54902H4.55621C4.60279 9.18598 4.79123 9.68984 5.12153 10.0606C5.45607 10.4314 5.87529 10.6168 6.37921 10.6168C7.08639 10.6168 7.66229 10.2959 8.10692 9.65419L8.93902 10.5455C8.66377 11.0065 8.29536 11.3654 7.83379 11.6221C7.37646 11.874 6.86195 12 6.29028 12ZM6.10608 5.39037C5.68262 5.39037 5.33961 5.55674 5.07707 5.88948C4.81876 6.22222 4.65361 6.68568 4.58162 7.27986H7.52255V7.15152C7.48867 6.5716 7.35105 6.13428 7.10968 5.83957C6.8683 5.54011 6.53377 5.39037 6.10608 5.39037Z" fill="#F1A923"/>
<path d="M11.7974 9.42365C12.1813 9.42365 12.4777 9.54724 12.6866 9.79441C12.8955 10.0353 13 10.3395 13 10.7071C13 11.0683 12.8955 11.3694 12.6866 11.6102C12.4777 11.8447 12.1813 11.962 11.7974 11.962C11.4304 11.962 11.1396 11.8447 10.925 11.6102C10.7105 11.3757 10.6032 11.0747 10.6032 10.7071C10.6032 10.3395 10.7077 10.0353 10.9166 9.79441C11.1255 9.54724 11.4191 9.42365 11.7974 9.42365Z" fill="#F1A923"/>
</svg>
