<svg width="30" height="30" viewBox="0 0 30 30" fill="none" xmlns="http://www.w3.org/2000/svg">
<path fill-rule="evenodd" clip-rule="evenodd" d="M16.4432 4.20057C15.6043 3.76273 14.4676 3.75598 13.622 4.19269C10.3808 5.86662 7.44096 7.78591 4.86474 9.91467C4.46635 10.2439 4.18363 10.7222 4.18845 11.2853C4.19326 11.846 4.48174 12.318 4.8777 12.6417C7.43252 14.7307 10.3748 16.6517 13.5566 18.3124C14.3955 18.7502 15.5323 18.757 16.3779 18.3203C19.6191 16.6464 22.5589 14.7271 25.1351 12.5983C25.5335 12.2691 25.8162 11.7908 25.8114 11.2277C25.8066 10.667 25.5181 10.195 25.1222 9.87124C22.5674 7.78227 19.6251 5.86125 16.4432 4.20057ZM14.4824 5.85863C14.782 5.70391 15.2741 5.70538 15.5757 5.8628C18.6124 7.44769 21.4104 9.27107 23.8344 11.2405C21.3959 13.2417 18.6062 15.0592 15.5175 16.6543C15.2179 16.8091 14.7258 16.8076 14.4242 16.6502C11.3875 15.0653 8.58951 13.2419 6.16548 11.2725C8.60398 9.2713 11.3937 7.45381 14.4824 5.85863Z" fill="#A0ABB6"/>
<path d="M26.4962 15.8728C26.7704 16.312 26.6367 16.8903 26.1975 17.1645L18.5634 21.9306C17.5275 22.5774 16.2422 22.8764 14.9998 22.8765C13.7574 22.8765 12.4721 22.5777 11.436 21.9311L3.88561 17.2189C3.44636 16.9447 3.31251 16.3664 3.58664 15.9272C3.86077 15.4879 4.43908 15.3541 4.87832 15.6282L12.4287 20.3404C13.1089 20.7649 14.0329 21.0015 14.9997 21.0015C15.9665 21.0014 16.8904 20.7647 17.5705 20.3401L25.2045 15.574C25.6437 15.2998 26.222 15.4336 26.4962 15.8728Z" fill="#A0ABB6"/>
<path d="M26.4962 20.5661C26.7704 21.0053 26.6367 21.5836 26.1976 21.8579L19.5864 25.9864C18.2644 26.812 16.6107 27.2005 14.9998 27.2006C13.3889 27.2007 11.7351 26.8124 10.4128 25.987L3.88551 21.9122C3.4463 21.638 3.31252 21.0597 3.5867 20.6205C3.86088 20.1813 4.4392 20.0475 4.87841 20.3217L11.4057 24.3965C12.372 24.9997 13.6644 25.3256 14.9997 25.3256C16.3349 25.3255 17.6272 24.9994 18.5933 24.3961L25.2044 20.2675C25.6436 19.9932 26.2219 20.1269 26.4962 20.5661Z" fill="#A0ABB6"/>
</svg>
