<svg width="22" height="22" viewBox="0 0 22 22" fill="none" xmlns="http://www.w3.org/2000/svg">
<path fill-rule="evenodd" clip-rule="evenodd" d="M18.8194 4.15264C19.0879 3.88415 19.0879 3.44885 18.8194 3.18037C18.5509 2.91188 18.1156 2.91188 17.8472 3.18037L3.18049 17.847C2.912 18.1155 2.912 18.5508 3.18049 18.8193C3.44898 19.0878 3.88428 19.0878 4.15276 18.8193L6.93486 16.0372C8.14286 16.5945 9.52582 16.9582 11 16.9582C13.3996 16.9582 15.5576 15.9944 17.1126 14.8009C17.8912 14.2034 18.53 13.5398 18.9782 12.894C19.4178 12.2604 19.7083 11.5943 19.7083 10.9998C19.7083 10.4054 19.4178 9.73925 18.9782 9.10571C18.53 8.45987 17.8912 7.79626 17.1126 7.19875C16.8646 7.00837 16.6012 6.82384 16.3239 6.64813L18.8194 4.15264ZM13.8679 9.10413L12.8615 10.1106C12.9903 10.3799 13.0625 10.6814 13.0625 10.9998C13.0625 12.1389 12.139 13.0623 11 13.0623C10.6815 13.0623 10.38 12.9902 10.1107 12.8613L9.10425 13.8678C9.64768 14.2277 10.2993 14.4373 11 14.4373C12.8984 14.4373 14.4375 12.8983 14.4375 10.9998C14.4375 10.2992 14.2279 9.64755 13.8679 9.10413Z" fill="#DADADA"/>
<path d="M11.6022 7.61491C11.686 7.62972 11.7726 7.60496 11.8328 7.54476L13.5876 5.7899C13.72 5.65755 13.6651 5.4327 13.4846 5.38302C12.6991 5.16682 11.8652 5.0415 11 5.0415C8.60034 5.0415 6.4423 6.00527 4.88727 7.19875C4.10875 7.79626 3.46994 8.45987 3.02174 9.10571C2.58208 9.73925 2.29163 10.4054 2.29163 10.9998C2.29163 11.5943 2.58208 12.2604 3.02174 12.894C3.40136 13.441 3.91773 14.0008 4.53991 14.5223C4.63762 14.6042 4.78142 14.5961 4.87157 14.506L7.54488 11.8327C7.60508 11.7725 7.62984 11.6859 7.61503 11.602C7.58048 11.4065 7.56246 11.2053 7.56246 10.9998C7.56246 9.10136 9.10148 7.56234 11 7.56234C11.2054 7.56234 11.4066 7.58036 11.6022 7.61491Z" fill="#DADADA"/>
</svg>
