<svg width="47" height="47" viewBox="0 0 47 47" fill="none" xmlns="http://www.w3.org/2000/svg">
<circle cx="23.5" cy="23.5" r="23.5" fill="#5386E9"/>
<path fill-rule="evenodd" clip-rule="evenodd" d="M23.4152 13.395C23.7964 13.2778 24.2039 13.2778 24.585 13.395L27.5707 14.3127C29.1284 14.7914 30.6077 15.4953 31.9617 16.4019C33.0149 17.1071 32.5157 18.7498 31.2482 18.7498H16.752C15.4846 18.7498 14.9854 17.1071 16.0385 16.4019C17.3926 15.4953 18.8719 14.7914 20.4295 14.3127L23.4152 13.395ZM24.1443 14.8288C24.0504 14.7999 23.9499 14.7999 23.8559 14.8288L20.8702 15.7465C19.6894 16.1094 18.558 16.6144 17.5008 17.2498H30.4994C29.4422 16.6144 28.3109 16.1094 27.1301 15.7465L24.1443 14.8288Z" fill="white"/>
<path d="M16.2501 31.9998C16.2501 31.5856 16.5859 31.2498 17.0001 31.2498H31.0001C31.4143 31.2498 31.7501 31.5856 31.7501 31.9998C31.7501 32.4141 31.4143 32.7498 31.0001 32.7498H17.0001C16.5859 32.7498 16.2501 32.4141 16.2501 31.9998Z" fill="white"/>
<path d="M18.2501 27.9998C18.2501 28.4141 18.5859 28.7498 19.0001 28.7498C19.4143 28.7498 19.7501 28.4141 19.7501 27.9998L19.7501 21.9998C19.7501 21.5856 19.4143 21.2498 19.0001 21.2498C18.5859 21.2498 18.2501 21.5856 18.2501 21.9998L18.2501 27.9998Z" fill="white"/>
<path d="M24.0001 28.7498C23.5859 28.7498 23.2501 28.4141 23.2501 27.9998L23.2501 21.9998C23.2501 21.5856 23.5859 21.2498 24.0001 21.2498C24.4143 21.2498 24.7501 21.5856 24.7501 21.9998V27.9998C24.7501 28.4141 24.4143 28.7498 24.0001 28.7498Z" fill="white"/>
<path d="M28.2501 27.9998C28.2501 28.4141 28.5859 28.7498 29.0001 28.7498C29.4143 28.7498 29.7501 28.4141 29.7501 27.9998V21.9998C29.7501 21.5856 29.4143 21.2498 29.0001 21.2498C28.5859 21.2498 28.2501 21.5856 28.2501 21.9998V27.9998Z" fill="white"/>
</svg>
