<svg width="38" height="27" viewBox="0 0 38 27" fill="none" xmlns="http://www.w3.org/2000/svg">
<path d="M13.0859 26.4688C9.47656 26.4688 6.54688 25.3359 4.29688 23.0703C2.0625 20.7891 0.945312 17.7578 0.945312 13.9766V13.2734C0.945312 10.7422 1.42969 8.48438 2.39844 6.5C3.38281 4.5 4.75781 2.94531 6.52344 1.83594C8.28906 0.726562 10.2578 0.171875 12.4297 0.171875C15.8828 0.171875 18.5469 1.27344 20.4219 3.47656C22.3125 5.67969 23.2578 8.79688 23.2578 12.8281V15.125H6.6875C6.85938 17.2188 7.55469 18.875 8.77344 20.0938C10.0078 21.3125 11.5547 21.9219 13.4141 21.9219C16.0234 21.9219 18.1484 20.8672 19.7891 18.7578L22.8594 21.6875C21.8438 23.2031 20.4844 24.3828 18.7812 25.2266C17.0938 26.0547 15.1953 26.4688 13.0859 26.4688ZM12.4062 4.74219C10.8438 4.74219 9.57812 5.28906 8.60938 6.38281C7.65625 7.47656 7.04688 9 6.78125 10.9531H17.6328V10.5312C17.5078 8.625 17 7.1875 16.1094 6.21875C15.2188 5.23438 13.9844 4.74219 12.4062 4.74219Z" fill="#F1A923"/>
<path d="M33.4062 18C34.8229 18 35.9167 18.4062 36.6875 19.2188C37.4583 20.0104 37.8438 21.0104 37.8438 22.2188C37.8438 23.4062 37.4583 24.3958 36.6875 25.1875C35.9167 25.9583 34.8229 26.3438 33.4062 26.3438C32.0521 26.3438 30.9792 25.9583 30.1875 25.1875C29.3958 24.4167 29 23.4271 29 22.2188C29 21.0104 29.3854 20.0104 30.1562 19.2188C30.9271 18.4062 32.0104 18 33.4062 18Z" fill="#F1A923"/>
</svg>
