<svg width="237" height="36" viewBox="0 0 237 36" fill="none" xmlns="http://www.w3.org/2000/svg">
<path d="M13.0859 35.4688C9.47656 35.4688 6.54688 34.3359 4.29688 32.0703C2.0625 29.7891 0.945312 26.7578 0.945312 22.9766V22.2734C0.945312 19.7422 1.42969 17.4844 2.39844 15.5C3.38281 13.5 4.75781 11.9453 6.52344 10.8359C8.28906 9.72656 10.2578 9.17188 12.4297 9.17188C15.8828 9.17188 18.5469 10.2734 20.4219 12.4766C22.3125 14.6797 23.2578 17.7969 23.2578 21.8281V24.125H6.6875C6.85938 26.2188 7.55469 27.875 8.77344 29.0938C10.0078 30.3125 11.5547 30.9219 13.4141 30.9219C16.0234 30.9219 18.1484 29.8672 19.7891 27.7578L22.8594 30.6875C21.8438 32.2031 20.4844 33.3828 18.7812 34.2266C17.0938 35.0547 15.1953 35.4688 13.0859 35.4688ZM12.4062 13.7422C10.8438 13.7422 9.57812 14.2891 8.60938 15.3828C7.65625 16.4766 7.04688 18 6.78125 19.9531H17.6328V19.5312C17.5078 17.625 17 16.1875 16.1094 15.2188C15.2188 14.2344 13.9844 13.7422 12.4062 13.7422Z" fill="#F1A923"/>
<path d="M38.1172 30.9219C39.5391 30.9219 40.7188 30.5078 41.6562 29.6797C42.5938 28.8516 43.0938 27.8281 43.1562 26.6094H48.5234C48.4609 28.1875 47.9688 29.6641 47.0469 31.0391C46.125 32.3984 44.875 33.4766 43.2969 34.2734C41.7188 35.0703 40.0156 35.4688 38.1875 35.4688C34.6406 35.4688 31.8281 34.3203 29.75 32.0234C27.6719 29.7266 26.6328 26.5547 26.6328 22.5078V21.9219C26.6328 18.0625 27.6641 14.9766 29.7266 12.6641C31.7891 10.3359 34.6016 9.17188 38.1641 9.17188C41.1797 9.17188 43.6328 10.0547 45.5234 11.8203C47.4297 13.5703 48.4297 15.875 48.5234 18.7344H43.1562C43.0938 17.2812 42.5938 16.0859 41.6562 15.1484C40.7344 14.2109 39.5547 13.7422 38.1172 13.7422C36.2734 13.7422 34.8516 14.4141 33.8516 15.7578C32.8516 17.0859 32.3438 19.1094 32.3281 21.8281V22.7422C32.3281 25.4922 32.8203 27.5469 33.8047 28.9062C34.8047 30.25 36.2422 30.9219 38.1172 30.9219Z" fill="#F1A923"/>
<path d="M51.7578 22.0859C51.7578 19.6016 52.25 17.3672 53.2344 15.3828C54.2188 13.3828 55.6016 11.8516 57.3828 10.7891C59.1641 9.71094 61.2109 9.17188 63.5234 9.17188C66.9453 9.17188 69.7188 10.2734 71.8438 12.4766C73.9844 14.6797 75.1406 17.6016 75.3125 21.2422L75.3359 22.5781C75.3359 25.0781 74.8516 27.3125 73.8828 29.2812C72.9297 31.25 71.5547 32.7734 69.7578 33.8516C67.9766 34.9297 65.9141 35.4688 63.5703 35.4688C59.9922 35.4688 57.125 34.2812 54.9688 31.9062C52.8281 29.5156 51.7578 26.3359 51.7578 22.3672V22.0859ZM57.4531 22.5781C57.4531 25.1875 57.9922 27.2344 59.0703 28.7188C60.1484 30.1875 61.6484 30.9219 63.5703 30.9219C65.4922 30.9219 66.9844 30.1719 68.0469 28.6719C69.125 27.1719 69.6641 24.9766 69.6641 22.0859C69.6641 19.5234 69.1094 17.4922 68 15.9922C66.9062 14.4922 65.4141 13.7422 63.5234 13.7422C61.6641 13.7422 60.1875 14.4844 59.0938 15.9688C58 17.4375 57.4531 19.6406 57.4531 22.5781Z" fill="#F1A923"/>
<path d="M85.4375 9.64062L85.6016 12.5703C87.4766 10.3047 89.9375 9.17188 92.9844 9.17188C98.2656 9.17188 100.953 12.1953 101.047 18.2422V35H95.3516V18.5703C95.3516 16.9609 95 15.7734 94.2969 15.0078C93.6094 14.2266 92.4766 13.8359 90.8984 13.8359C88.6016 13.8359 86.8906 14.875 85.7656 16.9531V35H80.0703V9.64062H85.4375Z" fill="#F1A923"/>
<path d="M105.805 22.0859C105.805 19.6016 106.297 17.3672 107.281 15.3828C108.266 13.3828 109.648 11.8516 111.43 10.7891C113.211 9.71094 115.258 9.17188 117.57 9.17188C120.992 9.17188 123.766 10.2734 125.891 12.4766C128.031 14.6797 129.188 17.6016 129.359 21.2422L129.383 22.5781C129.383 25.0781 128.898 27.3125 127.93 29.2812C126.977 31.25 125.602 32.7734 123.805 33.8516C122.023 34.9297 119.961 35.4688 117.617 35.4688C114.039 35.4688 111.172 34.2812 109.016 31.9062C106.875 29.5156 105.805 26.3359 105.805 22.3672V22.0859ZM111.5 22.5781C111.5 25.1875 112.039 27.2344 113.117 28.7188C114.195 30.1875 115.695 30.9219 117.617 30.9219C119.539 30.9219 121.031 30.1719 122.094 28.6719C123.172 27.1719 123.711 24.9766 123.711 22.0859C123.711 19.5234 123.156 17.4922 122.047 15.9922C120.953 14.4922 119.461 13.7422 117.57 13.7422C115.711 13.7422 114.234 14.4844 113.141 15.9688C112.047 17.4375 111.5 19.6406 111.5 22.5781Z" fill="#F1A923"/>
<path d="M139.555 9.64062L139.719 12.2891C141.5 10.2109 143.938 9.17188 147.031 9.17188C150.422 9.17188 152.742 10.4688 153.992 13.0625C155.836 10.4688 158.43 9.17188 161.773 9.17188C164.57 9.17188 166.648 9.94531 168.008 11.4922C169.383 13.0391 170.086 15.3203 170.117 18.3359V35H164.422V18.5C164.422 16.8906 164.07 15.7109 163.367 14.9609C162.664 14.2109 161.5 13.8359 159.875 13.8359C158.578 13.8359 157.516 14.1875 156.688 14.8906C155.875 15.5781 155.305 16.4844 154.977 17.6094L155 35H149.305V18.3125C149.227 15.3281 147.703 13.8359 144.734 13.8359C142.453 13.8359 140.836 14.7656 139.883 16.625V35H134.188V9.64062H139.555Z" fill="#F1A923"/>
<path d="M181.32 9.64062L181.484 12.2891C183.266 10.2109 185.703 9.17188 188.797 9.17188C192.188 9.17188 194.508 10.4688 195.758 13.0625C197.602 10.4688 200.195 9.17188 203.539 9.17188C206.336 9.17188 208.414 9.94531 209.773 11.4922C211.148 13.0391 211.852 15.3203 211.883 18.3359V35H206.188V18.5C206.188 16.8906 205.836 15.7109 205.133 14.9609C204.43 14.2109 203.266 13.8359 201.641 13.8359C200.344 13.8359 199.281 14.1875 198.453 14.8906C197.641 15.5781 197.07 16.4844 196.742 17.6094L196.766 35H191.07V18.3125C190.992 15.3281 189.469 13.8359 186.5 13.8359C184.219 13.8359 182.602 14.7656 181.648 16.625V35H175.953V9.64062H181.32Z" fill="#F1A923"/>
<path d="M223.789 35H218.094V9.64062H223.789V35ZM217.742 3.05469C217.742 2.17969 218.016 1.45312 218.562 0.875C219.125 0.296875 219.922 0.0078125 220.953 0.0078125C221.984 0.0078125 222.781 0.296875 223.344 0.875C223.906 1.45312 224.188 2.17969 224.188 3.05469C224.188 3.91406 223.906 4.63281 223.344 5.21094C222.781 5.77344 221.984 6.05469 220.953 6.05469C219.922 6.05469 219.125 5.77344 218.562 5.21094C218.016 4.63281 217.742 3.91406 217.742 3.05469Z" fill="#F1A923"/>
<path d="M233.562 29C234.625 29 235.445 29.3047 236.023 29.9141C236.602 30.5078 236.891 31.2578 236.891 32.1641C236.891 33.0547 236.602 33.7969 236.023 34.3906C235.445 34.9688 234.625 35.2578 233.562 35.2578C232.547 35.2578 231.742 34.9688 231.148 34.3906C230.555 33.8125 230.258 33.0703 230.258 32.1641C230.258 31.2578 230.547 30.5078 231.125 29.9141C231.703 29.3047 232.516 29 233.562 29Z" fill="#F1A923"/>
</svg>
