<svg width="47" height="47" viewBox="0 0 47 47" fill="none" xmlns="http://www.w3.org/2000/svg">
<circle cx="23.5" cy="23.5" r="23.5" fill="#DE5A5A"/>
<path d="M19.6629 24.8371C19.2968 24.471 18.7032 24.471 18.3371 24.8371C17.971 25.2032 17.971 25.7968 18.3371 26.1629L23.3371 31.1629C23.7032 31.529 24.2968 31.529 24.6629 31.1629L29.6629 26.1629C30.029 25.7968 30.029 25.2032 29.6629 24.8371C29.2968 24.471 28.7032 24.471 28.3371 24.8371L24.9375 28.2367L24.9375 16.125C24.9375 15.6072 24.5178 15.1875 24 15.1875C23.4822 15.1875 23.0625 15.6072 23.0625 16.125L23.0625 28.2367L19.6629 24.8371Z" fill="white"/>
</svg>
