<svg width="28" height="28" viewBox="0 0 28 28" fill="none" xmlns="http://www.w3.org/2000/svg">
<path fill-rule="evenodd" clip-rule="evenodd" d="M20.9834 6.32752C16.3422 5.8088 11.6576 5.8088 7.01641 6.32752C6.70238 6.36262 6.55116 6.73088 6.74989 6.97654L10.8531 12.0487C12.323 13.8657 13.1249 16.132 13.1249 18.4691V21.8398L14.8749 23.1232V18.4691C14.8749 16.132 15.6768 13.8657 17.1467 12.0487L21.2499 6.97654C21.4486 6.73088 21.2974 6.36262 20.9834 6.32752ZM6.82204 4.58835C11.5924 4.05519 16.4074 4.05519 21.1777 4.58835C22.8658 4.77701 23.6787 6.7566 22.6104 8.07718L18.5072 13.1493C17.2893 14.6548 16.6249 16.5326 16.6249 18.4691V24.8499C16.6249 25.1796 16.4395 25.4814 16.1454 25.6304C15.8513 25.7794 15.4983 25.7505 15.2324 25.5555L11.7324 22.9888C11.5077 22.824 11.3749 22.562 11.3749 22.2832V18.4691C11.3749 16.5326 10.7104 14.6548 9.49254 13.1493L5.38934 8.07718C4.32104 6.7566 5.13395 4.77701 6.82204 4.58835Z" fill="#465142"/>
</svg>
