<svg width="50" height="50" viewBox="0 0 50 50" fill="none" xmlns="http://www.w3.org/2000/svg">
<circle cx="25" cy="25" r="25" fill="#41C3A9"/>
<path d="M12.9773 36.8113H17.5909V25.6068L11 20.6636V34.8341C11 35.9265 11.8848 36.8114 12.9773 36.8114V36.8113Z" fill="white"/>
<path d="M33.4091 36.8113H38.0227C39.1151 36.8113 40 35.9265 40 34.834V20.6636L33.4091 25.6068V36.8113Z" fill="white"/>
<path d="M33.4091 17.0387V25.6069L40 20.6637V18.0274C40 15.5838 37.2104 14.1882 35.2545 15.6547L33.4091 17.0387Z" fill="white"/>
<path fill-rule="evenodd" clip-rule="evenodd" d="M17.5909 25.6068V17.0386L25.5 22.9704L33.4091 17.0386V25.6068L25.5 31.5386L17.5909 25.6068Z" fill="white"/>
<path d="M11 18.0274V20.6637L17.5909 25.6069V17.0387L15.7455 15.6547C13.7896 14.1882 11 15.5838 11 18.0273V18.0274Z" fill="white"/>
</svg>
