<svg width="23" height="23" viewBox="0 0 23 23" fill="none" xmlns="http://www.w3.org/2000/svg">
<circle cx="11.5" cy="11.5" r="11.5" fill="#8BCF61"/>
<path d="M9.10845 10.7753C8.86437 11.0194 8.46864 11.0194 8.22456 10.7753C7.98048 10.5312 7.98048 10.1355 8.22456 9.89139L11.5579 6.55806C11.802 6.31398 12.1977 6.31398 12.4418 6.55806L15.7751 9.89139C16.0192 10.1355 16.0192 10.5312 15.7751 10.7753C15.531 11.0194 15.1353 11.0194 14.8912 10.7753L12.6248 8.50888L12.6248 16.5833C12.6248 16.9285 12.345 17.2083 11.9998 17.2083C11.6547 17.2083 11.3748 16.9285 11.3748 16.5833L11.3748 8.50888L9.10845 10.7753Z" fill="white"/>
</svg>
