<svg width="34" height="24" viewBox="0 0 34 24" fill="none" xmlns="http://www.w3.org/2000/svg">
<path fill-rule="evenodd" clip-rule="evenodd" d="M14.7204 6.27748C15.0932 6.64745 15.0932 7.24729 14.7204 7.61726L10.3045 12L14.7204 16.3827C15.0932 16.7527 15.0932 17.3526 14.7204 17.7225C14.3476 18.0925 13.7433 18.0925 13.3705 17.7225L8.27958 12.6699C7.90681 12.2999 7.90681 11.7001 8.27958 11.3301L13.3705 6.27748C13.7433 5.90751 14.3476 5.90751 14.7204 6.27748Z" fill="#9E9E9E"/>
<path fill-rule="evenodd" clip-rule="evenodd" d="M24.7204 6.27748C25.0932 6.64745 25.0932 7.24729 24.7204 7.61726L20.3045 12L24.7204 16.3827C25.0932 16.7527 25.0932 17.3526 24.7204 17.7225C24.3476 18.0925 23.7433 18.0925 23.3705 17.7225L18.2796 12.6699C17.9068 12.2999 17.9068 11.7001 18.2796 11.3301L23.3705 6.27748C23.7433 5.90751 24.3476 5.90751 24.7204 6.27748Z" fill="#9E9E9E"/>
</svg>
