<svg width="50" height="50" viewBox="0 0 50 50" fill="none" xmlns="http://www.w3.org/2000/svg">
<circle cx="25" cy="25" r="22" fill="white"/>
<g clip-path="url(#clip0)">
<path d="M25 0.000488281C11.1928 0.000488281 0 11.1933 0 25.0004C0 38.8076 11.1928 50.0004 25 50.0004C38.8072 50.0004 50 38.8076 50 25.0004C49.9999 11.1933 38.807 0.000488281 25 0.000488281ZM18.3299 37.0868H12.8409V19.3534H18.3299V37.0868ZM15.5593 17.0311C13.7666 17.0311 12.3134 15.566 12.3134 13.759C12.3134 11.9518 13.7668 10.4868 15.5593 10.4868C17.3517 10.4868 18.805 11.9518 18.805 13.759C18.8051 15.5661 17.3518 17.0311 15.5593 17.0311V17.0311ZM38.8999 37.0868H33.4375V27.7782C33.4375 25.2252 32.4678 23.8 30.449 23.8C28.2519 23.8 27.1041 25.2843 27.1041 27.7782V37.0868H21.8395V19.3534H27.1041V21.7418C27.1041 21.7418 28.6877 18.8125 32.4479 18.8125C36.2082 18.8125 38.9 21.1085 38.9 25.8583L38.8999 37.0868V37.0868Z" fill="url(#paint0_linear)"/>
</g>
<defs>
<linearGradient id="paint0_linear" x1="7.32231" y1="7.32279" x2="42.6776" y2="42.6781" gradientUnits="userSpaceOnUse">
<stop stop-color="#349BD1"/>
<stop offset="1" stop-color="#0575B3"/>
</linearGradient>
<clipPath id="clip0">
<rect width="50" height="50" fill="white"/>
</clipPath>
</defs>
</svg>
