<svg width="20" height="20" viewBox="0 0 20 20" fill="none" xmlns="http://www.w3.org/2000/svg">
<path d="M10.0002 15.2082C9.65498 15.2082 9.37516 15.488 9.37516 15.8332C9.37516 16.1783 9.65498 16.4582 10.0002 16.4582H15.0002C15.8056 16.4582 16.4585 15.8053 16.4585 14.9998V4.99984C16.4585 4.19442 15.8056 3.5415 15.0002 3.5415H10.0002C9.65498 3.5415 9.37516 3.82133 9.37516 4.1665C9.37516 4.51168 9.65498 4.7915 10.0002 4.7915L15.0002 4.7915C15.1152 4.7915 15.2085 4.88478 15.2085 4.99984L15.2085 14.9998C15.2085 15.1149 15.1152 15.2082 15.0002 15.2082H10.0002Z" fill="#989898"/>
<path fill-rule="evenodd" clip-rule="evenodd" d="M2.7085 10.9292C2.7085 11.5045 3.17487 11.9709 3.75016 11.9709H7.59399C7.59943 12.032 7.60512 12.0932 7.61106 12.1544L7.65609 12.6176C7.72478 13.3244 8.47528 13.7476 9.11563 13.4407C10.4775 12.7881 11.793 11.8086 12.8376 10.718C13.2244 10.3141 13.2244 9.67716 12.8376 9.27326L12.7549 9.18695C11.7104 8.09632 10.4775 7.2032 9.11563 6.55054C8.47528 6.24365 7.72478 6.66691 7.65609 7.37367L7.61107 7.83691C7.60512 7.89806 7.59943 7.95923 7.59399 8.02042L3.75016 8.02042C3.17487 8.02042 2.7085 8.48679 2.7085 9.06209V10.9292ZM8.7945 11.2754C8.75909 10.9613 8.49293 10.7209 8.17347 10.7209H3.9585L3.9585 9.27042H8.17347C8.50354 9.27042 8.77671 9.01376 8.79726 8.68433C8.81238 8.44193 8.83169 8.19973 8.8552 7.95783L8.86827 7.82337C9.95563 8.38375 10.9453 9.11725 11.7982 9.99563C11.4421 10.3624 11.0622 10.7039 10.6612 11.0181C10.1018 11.4564 9.50163 11.8415 8.86827 12.1679L8.8552 12.0334C8.83169 11.7915 8.81238 11.5493 8.79726 11.3069C8.7966 11.2964 8.79568 11.2858 8.7945 11.2754Z" fill="#989898"/>
</svg>
