<svg width="50" height="50" viewBox="0 0 50 50" fill="none" xmlns="http://www.w3.org/2000/svg">
<g clip-path="url(#clip0)">
<path fill-rule="evenodd" clip-rule="evenodd" d="M24.9999 0C11.0124 0 0.172119 10.2355 0.172119 24.0594C0.172119 31.2905 3.13941 37.5387 7.97016 41.8555C8.37485 42.2198 8.61953 42.7238 8.63952 43.2678L8.77446 47.6793C8.81939 49.0867 10.2731 50 11.562 49.436L16.4876 47.2652C16.9043 47.0808 17.3718 47.0456 17.8114 47.1654C20.0743 47.7892 22.4872 48.1186 24.9999 48.1186C38.9874 48.1186 49.8277 37.883 49.8277 24.0593C49.8277 10.2355 38.9874 0 24.9999 0Z" fill="url(#paint0_linear)"/>
<path fill-rule="evenodd" clip-rule="evenodd" d="M10.0934 31.0957L17.3868 19.5378C18.5458 17.7013 21.0335 17.2421 22.7719 18.5447L28.5717 22.8914C28.8308 23.085 29.1458 23.1893 29.4693 23.1884C29.7927 23.1875 30.1071 23.0815 30.3652 22.8864L38.1982 16.9476C39.2422 16.1542 40.6111 17.4069 39.9066 18.5148L32.6182 30.0678C31.4592 31.9043 28.9714 32.3635 27.233 31.0609L21.4332 26.7141C21.1741 26.5205 20.8591 26.4163 20.5357 26.4172C20.2122 26.4181 19.8978 26.524 19.6398 26.7191L11.8018 32.6629C10.7578 33.4564 9.38888 32.2037 10.0934 31.0957V31.0957Z" fill="white"/>
</g>
<defs>
<linearGradient id="paint0_linear" x1="24.9999" y1="0" x2="24.9999" y2="49.6056" gradientUnits="userSpaceOnUse">
<stop stop-color="#00B2FF"/>
<stop offset="1" stop-color="#006AFF"/>
</linearGradient>
<clipPath id="clip0">
<rect width="50" height="50" fill="white"/>
</clipPath>
</defs>
</svg>
