<svg width="50" height="50" viewBox="0 0 50 50" fill="none" xmlns="http://www.w3.org/2000/svg">
<path fill-rule="evenodd" clip-rule="evenodd" d="M24.8278 0C10.8403 0 0 10.2355 0 24.0594C0 31.2905 2.96729 37.5387 7.79804 41.8555C8.20273 42.2198 8.44741 42.7238 8.4674 43.2678L8.60234 47.6793C8.64727 49.0867 10.1009 50 11.3899 49.436L16.3155 47.2652C16.7322 47.0808 17.1997 47.0456 17.6393 47.1654C19.9022 47.7892 22.3151 48.1185 24.8278 48.1185C38.8153 48.1185 49.6556 37.883 49.6556 24.0593C49.6556 10.2355 38.8153 0 24.8278 0Z" fill="#41C3A9"/>
<path fill-rule="evenodd" clip-rule="evenodd" d="M9.92125 31.0957L17.2147 19.5378C18.3736 17.7013 20.8614 17.2421 22.5998 18.5447L28.3996 22.8914C28.6587 23.085 28.9737 23.1893 29.2971 23.1884C29.6206 23.1875 29.935 23.0815 30.193 22.8864L38.0261 16.9476C39.0701 16.1542 40.439 17.4069 39.7345 18.5148L32.446 30.0678C31.2871 31.9043 28.7993 32.3635 27.0609 31.0609L21.2611 26.7141C21.002 26.5205 20.687 26.4163 20.3636 26.4172C20.0401 26.4181 19.7257 26.524 19.4677 26.7191L11.6297 32.6629C10.5856 33.4564 9.21676 32.2037 9.92125 31.0957Z" fill="white"/>
</svg>
