<svg width="20" height="20" viewBox="0 0 20 20" fill="none" xmlns="http://www.w3.org/2000/svg">
<path fill-rule="evenodd" clip-rule="evenodd" d="M9.57206 3.97343C6.43511 4.19303 3.9585 6.80737 3.9585 10.0002C3.9585 13.3369 6.66344 16.0418 10.0002 16.0418C12.6734 16.0418 14.9416 14.3053 15.7375 11.8991C15.1249 12.1521 14.4536 12.2918 13.7502 12.2918C10.8737 12.2918 8.54183 9.95998 8.54183 7.0835C8.54183 5.91754 8.92526 4.84107 9.57206 3.97343ZM2.7085 10.0002C2.7085 5.97309 5.97309 2.7085 10.0002 2.7085C10.3748 2.7085 10.7433 2.73681 11.1035 2.79151C11.3526 2.82935 11.5546 3.01311 11.6159 3.25755C11.6771 3.50199 11.5856 3.75929 11.3837 3.91011C10.4162 4.63295 9.79183 5.78523 9.79183 7.0835C9.79183 9.26962 11.564 11.0418 13.7502 11.0418C14.6954 11.0418 15.5617 10.7113 16.2423 10.159C16.4379 10.0003 16.7096 9.97452 16.9315 10.0936C17.1535 10.2126 17.2823 10.4533 17.2583 10.704C16.9038 14.4012 13.7899 17.2918 10.0002 17.2918C5.97309 17.2918 2.7085 14.0272 2.7085 10.0002Z" fill="#989898"/>
</svg>
