<svg width="30" height="30" viewBox="0 0 30 30" fill="none" xmlns="http://www.w3.org/2000/svg">
<path d="M8.03587 3.01636C8.37633 2.62627 8.33608 2.03404 7.94599 1.69359C7.55589 1.35313 6.96367 1.39338 6.62321 1.78347L5.00845 3.63368C4.0925 4.68319 3.57471 6.02133 3.54567 7.41403L3.47482 10.8111C3.46402 11.3288 3.87491 11.7571 4.39257 11.7679C4.91022 11.7787 5.33861 11.3679 5.34941 10.8502L5.42026 7.45312C5.44013 6.50023 5.79441 5.58466 6.42111 4.86657L8.03587 3.01636Z" fill="#A0ABB6"/>
<path fill-rule="evenodd" clip-rule="evenodd" d="M7.79613 9.62608C7.96975 6.85017 10.2717 4.68765 13.0531 4.68765H13.7499V3.75015C13.7499 3.0598 14.3095 2.50015 14.9999 2.50015C15.6902 2.50015 16.2499 3.0598 16.2499 3.75015V4.68765H16.9466C19.728 4.68765 22.0299 6.85017 22.2036 9.62608L22.4798 14.0429C22.5852 15.7269 23.1505 17.3497 24.1143 18.7346C24.9852 19.9859 24.2099 21.7142 22.6963 21.8958L18.4374 22.4069V23.7502C18.4374 25.6486 16.8983 27.1877 14.9999 27.1877C13.1014 27.1877 11.5624 25.6486 11.5624 23.7502V22.4069L7.30345 21.8958C5.78978 21.7142 5.01451 19.9859 5.88536 18.7346C6.84919 17.3497 7.41455 15.7269 7.51987 14.0429L7.79613 9.62608ZM13.0531 6.56265C11.2618 6.56265 9.77929 7.95537 9.66747 9.74313L9.39122 14.1599C9.26447 16.1864 8.58415 18.1392 7.42434 19.8057C7.3614 19.8961 7.41743 20.021 7.52684 20.0342L12.1989 20.5948C14.0595 20.8181 15.9402 20.8181 17.8008 20.5948L22.4729 20.0342C22.5823 20.021 22.6383 19.8961 22.5754 19.8057C21.4155 18.1392 20.7352 16.1864 20.6085 14.1599L20.3322 9.74313C20.2204 7.95537 18.7379 6.56265 16.9466 6.56265H13.0531ZM14.9999 25.3127C14.1369 25.3127 13.4374 24.6131 13.4374 23.7502V22.8127H16.5624V23.7502C16.5624 24.6131 15.8628 25.3127 14.9999 25.3127Z" fill="#A0ABB6"/>
<path d="M22.0537 1.69359C21.6636 2.03404 21.6234 2.62627 21.9638 3.01636L23.5786 4.86657C24.2053 5.58466 24.5596 6.50023 24.5795 7.45312L24.6503 10.8502C24.6611 11.3679 25.0895 11.7787 25.6071 11.7679C26.1248 11.7571 26.5357 11.3288 26.5249 10.8111L26.454 7.41403C26.425 6.02133 25.9072 4.68319 24.9913 3.63368L23.3765 1.78347C23.036 1.39338 22.4438 1.35313 22.0537 1.69359Z" fill="#A0ABB6"/>
</svg>
