<svg width="22" height="22" viewBox="0 0 22 22" fill="none" xmlns="http://www.w3.org/2000/svg">
<path d="M11 8.93734C9.86087 8.93734 8.93746 9.86075 8.93746 10.9998C8.93746 12.1389 9.86087 13.0623 11 13.0623C12.139 13.0623 13.0625 12.1389 13.0625 10.9998C13.0625 9.86075 12.139 8.93734 11 8.93734Z" fill="#DADADA"/>
<path fill-rule="evenodd" clip-rule="evenodd" d="M11 5.0415C8.60034 5.0415 6.4423 6.00527 4.88728 7.19875C4.10875 7.79626 3.46994 8.45987 3.02174 9.10571C2.58208 9.73925 2.29163 10.4054 2.29163 10.9998C2.29163 11.5943 2.58208 12.2604 3.02174 12.894C3.46994 13.5398 4.10875 14.2034 4.88728 14.8009C6.4423 15.9944 8.60034 16.9582 11 16.9582C13.3996 16.9582 15.5576 15.9944 17.1126 14.8009C17.8912 14.2034 18.53 13.5398 18.9782 12.894C19.4178 12.2604 19.7083 11.5943 19.7083 10.9998C19.7083 10.4054 19.4178 9.73925 18.9782 9.10571C18.53 8.45987 17.8912 7.79626 17.1126 7.19875C15.5576 6.00527 13.3996 5.0415 11 5.0415ZM7.56246 10.9998C7.56246 9.10136 9.10148 7.56234 11 7.56234C12.8984 7.56234 14.4375 9.10136 14.4375 10.9998C14.4375 12.8983 12.8984 14.4373 11 14.4373C9.10148 14.4373 7.56246 12.8983 7.56246 10.9998Z" fill="#DADADA"/>
</svg>
