<svg width="23" height="23" viewBox="0 0 23 23" fill="none" xmlns="http://www.w3.org/2000/svg">
<circle cx="11.5" cy="11.5" r="11.5" fill="#DE5A5A"/>
<path d="M9.10893 12.2247C8.86486 11.9806 8.46913 11.9806 8.22505 12.2247C7.98097 12.4688 7.98097 12.8645 8.22505 13.1086L11.5584 16.4419C11.8025 16.686 12.1982 16.686 12.4423 16.4419L15.7756 13.1086C16.0197 12.8645 16.0197 12.4688 15.7756 12.2247C15.5315 11.9806 15.1358 11.9806 14.8917 12.2247L12.6253 14.4911L12.6253 6.41667C12.6253 6.07149 12.3455 5.79167 12.0003 5.79167C11.6551 5.79167 11.3753 6.07149 11.3753 6.41667L11.3753 14.4911L9.10893 12.2247Z" fill="white"/>
</svg>
