<svg width="42" height="42" viewBox="0 0 42 42" fill="none" xmlns="http://www.w3.org/2000/svg">
<circle cx="21" cy="21" r="21" fill="#5386E9"/>
<path d="M20.4998 9.53125C17.9973 9.53125 15.9686 11.56 15.9686 14.0625C15.9686 16.565 17.9973 18.5937 20.4998 18.5937C23.0024 18.5937 25.0311 16.565 25.0311 14.0625C25.0311 11.56 23.0024 9.53125 20.4998 9.53125Z" fill="white"/>
<path d="M15.6665 21.0104C13.164 21.0104 11.1353 23.0391 11.1353 25.5417V26.9775C11.1353 27.8877 11.7949 28.6637 12.6931 28.8103C17.8634 29.6545 23.1363 29.6545 28.3066 28.8103C29.2048 28.6637 29.8644 27.8877 29.8644 26.9775V25.5417C29.8644 23.0391 27.8357 21.0104 25.3332 21.0104H24.9213C24.6984 21.0104 24.4768 21.0457 24.2649 21.1149L23.2191 21.4564C21.4522 22.0333 19.5475 22.0333 17.7806 21.4564L16.7348 21.1149C16.5228 21.0457 16.3013 21.0104 16.0784 21.0104H15.6665Z" fill="white"/>
</svg>
