<svg width="30" height="30" viewBox="0 0 30 30" fill="none" xmlns="http://www.w3.org/2000/svg">
<path fill-rule="evenodd" clip-rule="evenodd" d="M15 7.8125C12.7563 7.8125 10.9375 9.63134 10.9375 11.875C10.9375 14.1187 12.7563 15.9375 15 15.9375C17.2437 15.9375 19.0625 14.1187 19.0625 11.875C19.0625 9.63134 17.2437 7.8125 15 7.8125ZM12.8125 11.875C12.8125 10.6669 13.7919 9.6875 15 9.6875C16.2081 9.6875 17.1875 10.6669 17.1875 11.875C17.1875 13.0831 16.2081 14.0625 15 14.0625C13.7919 14.0625 12.8125 13.0831 12.8125 11.875Z" fill="#A0ABB6"/>
<path fill-rule="evenodd" clip-rule="evenodd" d="M15 2.8125C9.99493 2.8125 5.93751 6.86992 5.93751 11.875C5.93751 13.7102 6.48298 15.4179 7.42064 16.845L4.1881 22.4439C4.00427 22.7623 4.02353 23.1588 4.23735 23.4579C4.45117 23.757 4.82008 23.9035 5.18084 23.8326L8.44817 23.1903L9.52559 26.341C9.64455 26.6889 9.95588 26.9351 10.3218 26.9707C10.6877 27.0064 11.0407 26.8248 11.2246 26.5064L14.4493 20.921C14.6315 20.932 14.8151 20.9375 15 20.9375C15.1849 20.9375 15.3686 20.932 15.5507 20.921L18.7755 26.5064C18.9595 26.8251 19.313 27.0067 19.6792 26.9707C20.0455 26.9346 20.3568 26.6876 20.4751 26.3391L21.547 23.1819L24.8172 23.8322C25.1781 23.9039 25.5477 23.7579 25.7621 23.4587C25.9764 23.1596 25.9959 22.7626 25.8119 22.4439L22.5794 16.845C23.517 15.4179 24.0625 13.7102 24.0625 11.875C24.0625 6.86992 20.0051 2.8125 15 2.8125ZM7.81251 11.875C7.81251 7.90545 11.0305 4.6875 15 4.6875C18.9696 4.6875 22.1875 7.90545 22.1875 11.875C22.1875 15.8445 18.9696 19.0625 15 19.0625C11.0305 19.0625 7.81251 15.8445 7.81251 11.875ZM12.4797 20.5824C11.0385 20.166 9.74496 19.4015 8.69613 18.3858L6.84338 21.5948L8.88959 21.1926C9.34965 21.1022 9.80578 21.3655 9.95749 21.8091L10.6322 23.7823L12.4797 20.5824ZM19.3648 23.7772L17.5203 20.5824C18.9615 20.166 20.2551 19.4015 21.3039 18.3858L23.1537 21.5897L21.1064 21.1826C20.6451 21.0909 20.1871 21.3553 20.0359 21.8007L19.3648 23.7772Z" fill="#A0ABB6"/>
</svg>
