<svg width="47" height="47" viewBox="0 0 47 47" fill="none" xmlns="http://www.w3.org/2000/svg">
<circle cx="23.5" cy="23.5" r="23.5" fill="#8BCF61"/>
<path d="M19.6629 21.1629C19.2968 21.529 18.7032 21.529 18.3371 21.1629C17.971 20.7968 17.971 20.2032 18.3371 19.8371L23.3371 14.8371C23.7032 14.471 24.2968 14.471 24.6629 14.8371L29.6629 19.8371C30.029 20.2032 30.029 20.7968 29.6629 21.1629C29.2968 21.529 28.7032 21.529 28.3371 21.1629L24.9375 17.7633L24.9375 29.875C24.9375 30.3928 24.5178 30.8125 24 30.8125C23.4822 30.8125 23.0625 30.3928 23.0625 29.875L23.0625 17.7633L19.6629 21.1629Z" fill="white"/>
</svg>
