<svg width="34" height="24" viewBox="0 0 34 24" fill="none" xmlns="http://www.w3.org/2000/svg">
<path fill-rule="evenodd" clip-rule="evenodd" d="M19.2796 6.27748C18.9068 6.64745 18.9068 7.24729 19.2796 7.61726L23.6955 12L19.2796 16.3827C18.9068 16.7527 18.9068 17.3526 19.2796 17.7225C19.6524 18.0925 20.2567 18.0925 20.6295 17.7225L25.7204 12.6699C26.0932 12.2999 26.0932 11.7001 25.7204 11.3301L20.6295 6.27748C20.2567 5.90751 19.6524 5.90751 19.2796 6.27748Z" fill="#9E9E9E"/>
<path fill-rule="evenodd" clip-rule="evenodd" d="M9.27958 6.27748C8.90681 6.64745 8.90681 7.24729 9.27958 7.61726L13.6955 12L9.27958 16.3827C8.90681 16.7527 8.90681 17.3526 9.27958 17.7225C9.65235 18.0925 10.2567 18.0925 10.6295 17.7225L15.7204 12.6699C16.0932 12.2999 16.0932 11.7001 15.7204 11.3301L10.6295 6.27748C10.2567 5.90751 9.65235 5.90751 9.27958 6.27748Z" fill="#9E9E9E"/>
</svg>
