<svg width="28" height="28" viewBox="0 0 28 28" fill="none" xmlns="http://www.w3.org/2000/svg">
<path fill-rule="evenodd" clip-rule="evenodd" d="M16.7825 18.0199C13.6905 20.4963 9.16448 20.3014 6.29823 17.4352C3.22285 14.3598 3.22285 9.37361 6.29823 6.29823C9.37361 3.22285 14.3598 3.22285 17.4352 6.29823C20.3014 9.16448 20.4963 13.6905 18.0199 16.7825L24.0348 22.7974C24.3765 23.1391 24.3765 23.6931 24.0348 24.0348C23.6931 24.3765 23.1391 24.3765 22.7974 24.0348L16.7825 18.0199ZM7.53567 16.1977C5.14371 13.8058 5.14371 9.92763 7.53567 7.53567C9.92763 5.14371 13.8058 5.14371 16.1977 7.53567C18.5879 9.92588 18.5897 13.8001 16.203 16.1925C16.2012 16.1942 16.1995 16.1959 16.1977 16.1977C16.196 16.1995 16.1942 16.2012 16.1925 16.203C13.8001 18.5897 9.92588 18.5879 7.53567 16.1977Z" fill="#465142"/>
</svg>
