<svg width="30" height="30" viewBox="0 0 30 30" fill="none" xmlns="http://www.w3.org/2000/svg">
<path fill-rule="evenodd" clip-rule="evenodd" d="M15.0001 3.84908L12.2341 6.71096C11.9397 7.01557 11.5342 7.18758 11.1106 7.18758H7.18758V11.1106C7.18758 11.5342 7.01557 11.9397 6.71096 12.2341L3.84908 15.0001L6.71096 17.7661C7.01557 18.0605 7.18758 18.466 7.18758 18.8896V22.8126H11.1106C11.5342 22.8126 11.9397 22.9846 12.2341 23.2892L15.0001 26.1511L17.7661 23.2892C18.0605 22.9846 18.466 22.8126 18.8896 22.8126H22.8126V18.8896C22.8126 18.466 22.9846 18.0605 23.2892 17.7661L26.1511 15.0001L23.2892 12.2341C22.9846 11.9397 22.8126 11.5342 22.8126 11.1106V7.18758H18.8896C18.466 7.18758 18.0605 7.01557 17.7661 6.71096L15.0001 3.84908ZM13.8766 2.31354C14.4908 1.67804 15.5094 1.67804 16.1236 2.31354L19.0222 5.31258H23.1251C23.988 5.31258 24.6876 6.01214 24.6876 6.87508V10.978L27.6866 13.8766C28.3221 14.4908 28.3221 15.5094 27.6866 16.1236L24.6876 19.0222V23.1251C24.6876 23.988 23.988 24.6876 23.1251 24.6876H19.0222L16.1236 27.6866C15.5094 28.3221 14.4908 28.3221 13.8766 27.6866L10.978 24.6876H6.87508C6.01214 24.6876 5.31258 23.988 5.31258 23.1251V19.0222L2.31354 16.1236C1.67804 15.5094 1.67804 14.4908 2.31354 13.8766L5.31258 10.978V6.87508C5.31258 6.01214 6.01214 5.31258 6.87508 5.31258H10.978L13.8766 2.31354Z" fill="#A0ABB6"/>
<path fill-rule="evenodd" clip-rule="evenodd" d="M9.06258 15.0001C9.06258 11.7209 11.7209 9.06258 15.0001 9.06258C18.2793 9.06258 20.9376 11.7209 20.9376 15.0001C20.9376 18.2793 18.2793 20.9376 15.0001 20.9376C11.7209 20.9376 9.06258 18.2793 9.06258 15.0001ZM15.0001 10.9376C12.7564 10.9376 10.9376 12.7564 10.9376 15.0001C10.9376 17.2437 12.7564 19.0626 15.0001 19.0626C17.2437 19.0626 19.0626 17.2437 19.0626 15.0001C19.0626 12.7564 17.2437 10.9376 15.0001 10.9376Z" fill="#A0ABB6"/>
</svg>
