<svg width="30" height="30" viewBox="0 0 30 30" fill="none" xmlns="http://www.w3.org/2000/svg">
<path fill-rule="evenodd" clip-rule="evenodd" d="M17.8125 6.875C17.8125 4.63134 19.6313 2.8125 21.875 2.8125C24.1187 2.8125 25.9375 4.63134 25.9375 6.875C25.9375 9.11866 24.1187 10.9375 21.875 10.9375C20.6755 10.9375 19.5974 10.4176 18.8537 9.59088L15.4571 11.4436L11.6564 13.6154C11.9944 14.208 12.1875 14.894 12.1875 15.625C12.1875 15.9954 12.1379 16.3543 12.045 16.6953L18.8537 20.4091C19.5974 19.5824 20.6755 19.0625 21.875 19.0625C24.1187 19.0625 25.9375 20.8813 25.9375 23.125C25.9375 25.3687 24.1187 27.1875 21.875 27.1875C19.6313 27.1875 17.8125 25.3687 17.8125 23.125C17.8125 22.7546 17.8621 22.3957 17.955 22.0547L11.1463 18.3409C10.4026 19.1676 9.32454 19.6875 8.125 19.6875C5.88134 19.6875 4.0625 17.8687 4.0625 15.625C4.0625 13.3813 5.88134 11.5625 8.125 11.5625C8.93835 11.5625 9.69587 11.8015 10.3312 12.2132L14.5429 9.80642L17.955 7.94531C17.8621 7.6043 17.8125 7.24544 17.8125 6.875ZM21.875 4.6875C20.6669 4.6875 19.6875 5.66688 19.6875 6.875C19.6875 8.08312 20.6669 9.0625 21.875 9.0625C23.0831 9.0625 24.0625 8.08312 24.0625 6.875C24.0625 5.66688 23.0831 4.6875 21.875 4.6875ZM8.125 13.4375C6.91688 13.4375 5.9375 14.4169 5.9375 15.625C5.9375 16.8331 6.91688 17.8125 8.125 17.8125C9.33312 17.8125 10.3125 16.8331 10.3125 15.625C10.3125 14.4169 9.33312 13.4375 8.125 13.4375ZM19.6875 23.125C19.6875 21.9169 20.6669 20.9375 21.875 20.9375C23.0831 20.9375 24.0625 21.9169 24.0625 23.125C24.0625 24.3331 23.0831 25.3125 21.875 25.3125C20.6669 25.3125 19.6875 24.3331 19.6875 23.125Z" fill="#A0ABB6"/>
</svg>
