<svg width="20" height="20" viewBox="0 0 20 20" fill="none" xmlns="http://www.w3.org/2000/svg">
<path fill-rule="evenodd" clip-rule="evenodd" d="M11.8752 4.58333C11.8752 3.08756 13.0877 1.875 14.5835 1.875C16.0793 1.875 17.2918 3.08756 17.2918 4.58333C17.2918 6.0791 16.0793 7.29167 14.5835 7.29167C13.7838 7.29167 13.0651 6.94508 12.5693 6.39392L10.3049 7.62906L7.77112 9.07692C7.99643 9.472 8.12516 9.9293 8.12516 10.4167C8.12516 10.6636 8.09211 10.9029 8.03018 11.1302L12.5693 13.6061C13.0651 13.0549 13.7838 12.7083 14.5835 12.7083C16.0793 12.7083 17.2918 13.9209 17.2918 15.4167C17.2918 16.9124 16.0793 18.125 14.5835 18.125C13.0877 18.125 11.8752 16.9124 11.8752 15.4167C11.8752 15.1697 11.9082 14.9305 11.9701 14.7031L7.43103 12.2272C6.93526 12.7784 6.21652 13.125 5.41683 13.125C3.92106 13.125 2.7085 11.9124 2.7085 10.4167C2.7085 8.9209 3.92106 7.70833 5.41683 7.70833C5.95906 7.70833 6.46408 7.86768 6.8876 8.1421L9.69545 6.53761L11.9701 5.29687C11.9082 5.06954 11.8752 4.83029 11.8752 4.58333ZM14.5835 3.125C13.7781 3.125 13.1252 3.77792 13.1252 4.58333C13.1252 5.38875 13.7781 6.04167 14.5835 6.04167C15.3889 6.04167 16.0418 5.38875 16.0418 4.58333C16.0418 3.77792 15.3889 3.125 14.5835 3.125ZM5.41683 8.95833C4.61141 8.95833 3.9585 9.61125 3.9585 10.4167C3.9585 11.2221 4.61141 11.875 5.41683 11.875C6.22224 11.875 6.87516 11.2221 6.87516 10.4167C6.87516 9.61125 6.22224 8.95833 5.41683 8.95833ZM13.1252 15.4167C13.1252 14.6113 13.7781 13.9583 14.5835 13.9583C15.3889 13.9583 16.0418 14.6113 16.0418 15.4167C16.0418 16.2221 15.3889 16.875 14.5835 16.875C13.7781 16.875 13.1252 16.2221 13.1252 15.4167Z" fill="#989898"/>
</svg>
