<svg width="50" height="50" viewBox="0 0 50 50" fill="none" xmlns="http://www.w3.org/2000/svg">
<path d="M50 25C50 38.8125 38.8125 50 25 50C11.1875 50 0 38.8125 0 25C0 11.1875 11.1875 0 25 0C38.8125 0 50 11.1875 50 25Z" fill="#41C3A9"/>
<path d="M21.6403 29.0484L31.7237 36.486C32.8695 37.111 33.7028 36.7985 33.9945 35.4235L38.0987 16.0901C38.5153 14.4026 37.4528 13.6526 36.3487 14.1526L12.2653 23.4443C10.6195 24.1109 10.6403 25.0276 11.9737 25.4234L18.1612 27.3609L32.4737 18.3401C33.1403 17.9234 33.7653 18.1526 33.2653 18.6109L21.6403 29.0484Z" fill="url(#paint0_linear)"/>
<defs>
<linearGradient id="paint0_linear" x1="27.6801" y1="24.7474" x2="32.8885" y2="33.0807" gradientUnits="userSpaceOnUse">
<stop stop-color="#EFF7FC"/>
<stop offset="1" stop-color="white"/>
</linearGradient>
</defs>
</svg>
