<svg width="50" height="50" viewBox="0 0 50 50" fill="none" xmlns="http://www.w3.org/2000/svg">
<circle cx="25" cy="25" r="25" fill="#41C3A9"/>
<path d="M20.434 37.9698C31.2709 37.9698 37.1972 29.038 37.1972 21.2925C37.1972 21.0389 37.192 20.7864 37.1805 20.5349C38.3336 19.7048 39.3288 18.677 40.1193 17.4997C39.0637 17.9666 37.9277 18.2809 36.736 18.4226C37.9524 17.6969 38.8862 16.549 39.3268 15.1806C38.1702 15.8632 36.905 16.3443 35.5856 16.6034C34.5105 15.464 32.9799 14.7515 31.2851 14.7515C28.0315 14.7515 25.3931 17.3764 25.3931 20.6121C25.3931 21.0721 25.4449 21.5194 25.5459 21.9486C20.6493 21.7035 16.3073 19.3711 13.4014 15.8245C12.878 16.719 12.6028 17.7356 12.6037 18.7706C12.6037 20.8041 13.6438 22.5993 15.2255 23.6496C14.2899 23.6212 13.3748 23.3698 12.5572 22.9165C12.5563 22.9411 12.5563 22.9651 12.5563 22.9914C12.5563 25.83 14.5871 28.2001 17.283 28.7371C16.7767 28.8743 16.2542 28.9437 15.7294 28.9434C15.3505 28.9434 14.9811 28.9063 14.6222 28.8377C15.3722 31.1666 17.5472 32.8614 20.1259 32.9088C18.1094 34.4812 15.5692 35.4177 12.8084 35.4177C12.3388 35.4181 11.8695 35.391 11.4031 35.3365C14.0105 36.9993 17.1066 37.9694 20.4343 37.9694" fill="#FBFEFF"/>
</svg>
