<svg width="50" height="50" viewBox="0 0 50 50" fill="none" xmlns="http://www.w3.org/2000/svg">
<circle cx="25" cy="25" r="25" fill="#41C3A9"/>
<path fill-rule="evenodd" clip-rule="evenodd" d="M34.5458 32.8277C33.7524 32.189 32.9045 31.6157 32.0699 31.03C30.4054 29.861 28.883 29.7701 27.6409 31.6509C26.9435 32.7069 25.9671 32.7531 24.9461 32.2899C22.1316 31.0137 19.9583 29.0474 18.6852 26.1867C18.122 24.9211 18.1295 23.7863 19.4471 22.8912C20.1447 22.4178 20.8475 21.8576 20.7913 20.8232C20.7179 19.4744 17.4431 14.967 16.1499 14.4913C15.6148 14.2944 15.0818 14.3072 14.5374 14.4902C11.505 15.5099 10.249 18.0038 11.4519 20.9568C15.0404 29.7666 21.3556 35.8997 30.0489 39.643C30.5446 39.8562 31.0952 39.9414 31.3739 40.0179C33.3531 40.0378 35.6717 38.1309 36.3412 36.2385C36.9859 34.4179 35.6235 33.6953 34.5458 32.8277ZM24.7985 15.3945C31.1538 16.3718 34.0848 19.3938 34.8941 25.7949C34.9692 26.3861 34.7489 27.2758 35.5925 27.2922C36.4741 27.3091 36.2617 26.4325 36.2691 25.8407C36.3436 19.812 31.087 14.2232 24.9822 14.0172C24.5216 14.0834 23.5686 13.6995 23.5091 14.7319C23.4695 15.4279 24.2719 15.3135 24.7985 15.3945Z" fill="white"/>
<path fill-rule="evenodd" clip-rule="evenodd" d="M26.0417 17.1496C25.4304 17.076 24.6234 16.788 24.4806 17.6362C24.3314 18.5264 25.2308 18.436 25.8088 18.5654C29.734 19.4427 31.1007 20.8713 31.747 24.7649C31.8414 25.3326 31.6539 26.2161 32.6185 26.0697C33.3335 25.9608 33.0752 25.2035 33.135 24.7611C33.1667 21.0229 29.9635 17.6206 26.0417 17.1496Z" fill="white"/>
<path fill-rule="evenodd" clip-rule="evenodd" d="M26.4021 20.2062C25.9941 20.2163 25.5936 20.2605 25.4436 20.6965C25.2183 21.3483 25.6922 21.5037 26.1745 21.5812C27.7847 21.8396 28.6321 22.7891 28.793 24.3948C28.8364 24.8306 29.113 25.1837 29.534 25.1341C30.1173 25.0645 30.1701 24.5452 30.1522 24.0521C30.181 22.2481 28.1421 20.163 26.4021 20.2062Z" fill="white"/>
</svg>
