<svg width="50" height="50" viewBox="0 0 50 50" fill="none" xmlns="http://www.w3.org/2000/svg">
<circle cx="25" cy="25" r="25" fill="#41C3A9"/>
<path d="M35.5245 14.4978C32.7321 11.7031 29.0186 10.1632 25.062 10.1616C16.9098 10.1616 10.2749 16.794 10.2716 24.9462C10.2705 27.5521 10.9516 30.0958 12.2459 32.338L10.1476 39.9999L17.9881 37.9438C20.1485 39.1217 22.5806 39.7425 25.0561 39.7435H25.0622C33.2135 39.7435 39.8491 33.1103 39.8524 24.958C39.8539 21.0073 38.317 17.2925 35.5245 14.4978ZM25.0622 37.2464H25.0571C22.8513 37.2455 20.6877 36.6531 18.8003 35.5334L18.3514 35.2671L13.6987 36.4872L14.9406 31.9523L14.6482 31.4874C13.4177 29.5307 12.7677 27.2692 12.7687 24.9472C12.7714 18.1714 18.2861 12.6588 25.0669 12.6588C28.3503 12.6601 31.4369 13.9401 33.7579 16.2629C36.0789 18.5857 37.3563 21.6734 37.3551 24.9571C37.3525 31.7334 31.8378 37.2464 25.0622 37.2464ZM31.8052 28.0424C31.4355 27.8575 29.6187 26.9637 29.2799 26.8404C28.9412 26.7171 28.6948 26.6555 28.4484 27.0254C28.2021 27.3952 27.4939 28.2274 27.2782 28.4739C27.0626 28.7205 26.8471 28.7513 26.4775 28.5664C26.108 28.3815 24.9172 27.9914 23.5056 26.7327C22.4071 25.7532 21.6653 24.5433 21.4498 24.1734C21.2342 23.8035 21.4269 23.6036 21.6119 23.4194C21.7781 23.2539 21.9814 22.9879 22.1662 22.7722C22.3509 22.5565 22.4126 22.4023 22.5357 22.1558C22.6589 21.9092 22.5973 21.6935 22.5049 21.5085C22.4126 21.3236 21.6734 19.5052 21.3655 18.7655C21.0655 18.0451 20.7608 18.1426 20.534 18.1313C20.3186 18.1205 20.072 18.1183 19.8257 18.1183C19.5793 18.1183 19.1789 18.2107 18.8402 18.5806C18.5015 18.9505 17.5468 19.8442 17.5468 21.6626C17.5468 23.481 18.871 25.2378 19.0558 25.4843C19.2406 25.7309 21.6617 29.4626 25.3689 31.0628C26.2506 31.4434 26.939 31.6707 27.4757 31.841C28.361 32.1221 29.1666 32.0825 29.8034 31.9874C30.5134 31.8814 31.9898 31.0937 32.2979 30.2307C32.6058 29.3677 32.6058 28.6281 32.5134 28.474C32.421 28.3199 32.1747 28.2274 31.8052 28.0424Z" fill="white"/>
</svg>
